<?xml version="1.0" encoding="iso-8859-1"?>
<!-- Generator: Adobe Illustrator 19.0.0, SVG Export Plug-In . SVG Version: 6.00 Build 0)  -->
<svg version="1.1" id="Layer_1" xmlns="http://www.w3.org/2000/svg" xmlns:xlink="http://www.w3.org/1999/xlink" x="0px" y="0px"
	 viewBox="0 0 512.003 512.003" style="enable-background:new 0 0 512.003 512.003;" xml:space="preserve">
<g>
	<path style="fill:#FFE5BB;" d="M237.422,342.074l-12.106-28.69c0,0,1.642-26.29,1.227-28.39
		c-1.412-11.646-5.462-22.551-11.681-32.212h-98.181v84.891h-11.285l-6.492-19.245c-3.716-4.817-9.537-7.92-16.079-7.92h-1.13
		c-11.219,0-20.313,9.121-20.313,20.373v10.187c0,11.254,9.094,20.374,20.313,20.374h1.13c2.805,0,5.472-0.573,7.899-1.607
		c0.778-0.332,4.064,2.739,4.064,2.739l-10.834,54.329c-0.028-0.023-0.056-0.048-0.084-0.071v41.95h83.68v-23.624
		c1.595,0.151,3.201,0.251,4.824,0.251h10.279c15.381,0,28.31-10.518,32.033-24.775c2.012,1.11,4.321,1.742,6.78,1.742
		c7.791,0,14.107-6.333,14.107-14.148c0-4.987-2.581-9.365-6.47-11.885c3.889-2.518,6.47-6.896,6.47-11.886
		c0-7.813-6.316-14.147-14.107-14.147c-0.405,0-0.587-5.647-0.587-5.647l13.827-5.867
		C237.305,347.694,238.524,344.683,237.422,342.074z"/>
	<path style="fill:#FFE5BB;" d="M374.554,297.221h-82.659c-0.382,2.309-0.7,4.642-0.897,7.016
		c-0.55,6.612,1.107,23.097,1.847,28.503l-12.612,23.355c-1.782,3.296-0.561,7.419,2.727,9.206l15.41,8.372
		c0.086,0.671,0.137,1.103,0.147,1.25c-4.78,1.923-8.162,6.602-8.162,12.083c0,7.139,5.729,12.928,12.826,13.015
		c0.133,0.43,0.268,0.859,0.406,1.283c-3.289,2.364-5.443,6.221-5.443,10.587c0,7.192,5.813,13.024,12.983,13.024
		c1.473,0,2.885-0.258,4.204-0.712c6.988,8.927,15.739,14.508,25.571,15.329c9.025,0.754,17.81-2.605,25.661-9.071v37.863h30.39
		V323.352C386.952,317.306,378.997,308.027,374.554,297.221z"/>
</g>
<path style="fill:#8C6239;" d="M98.903,318.428c-3.716-4.817-9.537-7.92-16.079-7.92h-1.13c-11.219,0-20.313,9.121-20.313,20.373
	v10.187c0,11.254,9.094,20.374,20.313,20.374h1.13c2.805,0,5.472-0.573,7.899-1.607c0.778-0.332,4.064,2.739,4.064,2.739
	l-10.834,54.329C39.941,379.552-21,321.826,23.013,232.408c44.013-89.418,186.311-39.615,186.311-39.615l15.235-3.396
	c19.75,50.368-9.694,63.386-9.694,63.386H116.68v84.891h-11.285L98.903,318.428z"/>
<g style="opacity:0.1;">
	<path d="M55.931,232.408c18.026-36.623,52.539-49.884,87.009-52.787c-43.305-3.244-96.063,4.301-119.927,52.787
		c-44.013,89.418,16.928,147.144,60.942,184.496l5.054-25.348C52.449,354.821,20.849,303.683,55.931,232.408z"/>
</g>
<path style="fill:#FF8163;" d="M270.881,191.434c-2.439,0-4.78-0.976-6.504-2.704l-63.467-63.713
	c-8.973-8.997-13.914-20.964-13.914-33.692c0-12.724,4.941-24.691,13.914-33.69c8.973-9,20.903-13.957,33.592-13.957
	s24.619,4.957,33.591,13.957l2.788,2.796l2.788-2.796c8.974-9,20.901-13.957,33.592-13.957c12.689,0,24.62,4.957,33.591,13.957
	c8.973,8.999,13.916,20.966,13.916,33.69c0,12.728-4.943,24.695-13.916,33.692l-63.467,63.713
	C275.662,190.459,273.322,191.434,270.881,191.434z"/>
<g style="opacity:0.1;">
	<path d="M233.78,114.342c-8.973-8.997-13.914-20.964-13.914-33.691c0-12.725,4.941-24.691,13.914-33.69
		c1.125-1.13,2.298-2.195,3.511-3.194c-0.926-0.054-1.855-0.089-2.79-0.089c-12.689,0-24.621,4.957-33.592,13.957
		c-8.973,8.999-13.914,20.966-13.914,33.69c0,12.728,4.941,24.695,13.914,33.692l63.467,63.713c1.724,1.728,4.067,2.704,6.504,2.704
		c2.441,0,4.78-0.976,6.506-2.704l15.248-15.307L233.78,114.342z"/>
</g>
<path style="fill:#C69C6D;" d="M396.952,468.323V323.352c-10.001-6.046-17.956-15.324-22.398-26.131H276.39
	c-1.547,0-3.026-0.636-4.089-1.761c-1.068-1.122-1.625-2.634-1.549-4.184c3.126-62.344,54.357-111.18,116.632-111.18
	c64.393,0,116.779,52.542,116.779,117.125v171.102H396.952z"/>
<g style="opacity:0.1;">
	<path d="M303.67,291.278c2.847-56.742,45.539-102.288,100.138-110.017c-5.368-0.761-10.85-1.163-16.425-1.163
		c-62.276,0-113.505,48.836-116.632,111.18c-0.075,1.549,0.482,3.062,1.549,4.184c1.064,1.123,2.541,1.761,4.089,1.761h32.918
		c-1.546,0-3.025-0.636-4.089-1.761C304.152,294.339,303.595,292.826,303.67,291.278z"/>
</g>
<g>
	<path style="fill:#FFAA99;" d="M121.039,138.958c-0.939,0-1.839-0.375-2.504-1.041l-24.42-24.516
		c-3.452-3.462-5.354-8.067-5.354-12.963c0-4.896,1.902-9.5,5.354-12.963c3.452-3.463,8.044-5.371,12.926-5.371
		c4.882,0,9.473,1.907,12.925,5.371l1.073,1.076l1.072-1.076c3.452-3.463,8.042-5.371,12.925-5.371
		c4.883,0,9.473,1.907,12.925,5.371c3.452,3.463,5.355,8.068,5.355,12.963c0,4.897-1.902,9.502-5.355,12.963l-24.421,24.515
		C122.878,138.582,121.977,138.958,121.039,138.958z"/>
	<path style="fill:#FFAA99;" d="M418.873,138.958c-0.938,0-1.839-0.375-2.503-1.041l-24.421-24.515
		c-3.452-3.462-5.354-8.067-5.354-12.963c0-4.896,1.902-9.5,5.354-12.963c3.453-3.463,8.044-5.371,12.926-5.371
		c4.882,0,9.472,1.907,12.924,5.371l1.072,1.076l1.074-1.076c3.451-3.463,8.04-5.371,12.923-5.371s9.472,1.907,12.926,5.371
		c3.451,3.463,5.354,8.068,5.354,12.963c0,4.897-1.903,9.502-5.354,12.963l-24.421,24.515
		C420.713,138.582,419.813,138.958,418.873,138.958z"/>
</g>
<path style="opacity:0.1;enable-background:new    ;" d="M432.063,126.841c-0.664,0.666-1.563,1.041-2.503,1.041
	c-0.938,0-1.84-0.375-2.504-1.041l-24.421-24.514c-3.451-3.462-5.354-8.067-5.354-12.964c0-2.087,0.366-4.113,1.029-6.027
	c-2.356,0.908-4.523,2.295-6.362,4.139c-3.452,3.463-5.354,8.068-5.354,12.963c0,4.897,1.902,9.502,5.354,12.963l24.421,24.515
	c0.664,0.666,1.563,1.041,2.503,1.041c0.938,0,1.84-0.375,2.504-1.041L432.063,126.841z"/>
<path style="opacity:0.1;enable-background:new    ;" d="M134.227,126.841c-0.664,0.666-1.563,1.041-2.501,1.041
	c-0.939,0-1.839-0.375-2.504-1.041l-24.421-24.514c-3.452-3.462-5.354-8.067-5.354-12.964c0-2.087,0.366-4.113,1.028-6.027
	c-2.355,0.908-4.523,2.295-6.361,4.139c-3.452,3.463-5.354,8.068-5.354,12.963c0,4.897,1.902,9.502,5.354,12.963l24.42,24.515
	c0.665,0.666,1.564,1.041,2.504,1.041c0.939,0,1.839-0.375,2.503-1.041L134.227,126.841z"/>
<path d="M410.82,143.449c2.119,2.126,5.055,3.346,8.053,3.346c2.999,0,5.934-1.219,8.055-3.348l24.419-24.511
	c4.928-4.942,7.641-11.512,7.641-18.498c0-6.983-2.714-13.552-7.641-18.498c-4.936-4.948-11.497-7.674-18.477-7.674
	c-5.035,0-9.853,1.418-13.999,4.067c-4.145-2.648-8.963-4.067-13.997-4.067c-6.98,0-13.541,2.725-18.479,7.676
	c-4.927,4.943-7.639,11.514-7.639,18.496c0,6.987,2.714,13.555,7.639,18.495L410.82,143.449z M397.499,93.009
	c1.974-1.978,4.593-3.068,7.377-3.068s5.403,1.09,7.372,3.065l1.073,1.076c1.47,1.475,3.467,2.306,5.549,2.306c0,0,0.001,0,0.002,0
	c2.084,0,4.079-0.829,5.551-2.303l1.074-1.077c1.971-1.977,4.589-3.067,7.374-3.067s5.404,1.09,7.375,3.066
	c1.978,1.984,3.068,4.624,3.068,7.43c0,2.809-1.089,5.446-3.068,7.432l-21.371,21.451l-21.372-21.454
	c-1.978-1.983-3.067-4.622-3.067-7.429C394.434,97.631,395.524,94.992,397.499,93.009z"/>
<path d="M282.939,194.261l30.843-30.962c3.054-3.068,3.045-8.03-0.022-11.083c-3.067-3.056-8.03-3.047-11.084,0.021l-30.839,30.959
	c-0.513,0.512-1.405,0.509-1.908,0.004l-63.471-63.717c-7.497-7.517-11.627-17.518-11.627-28.157
	c0-10.637,4.129-20.636,11.627-28.156c7.491-7.514,17.451-11.653,28.042-11.653c10.591,0,20.549,4.139,28.041,11.654l2.788,2.796
	c1.47,1.474,3.468,2.304,5.552,2.304c2.083,0,4.079-0.83,5.552-2.304l2.788-2.797c7.492-7.514,17.45-11.653,28.042-11.653
	c10.591,0,20.549,4.139,28.041,11.654c7.499,7.52,11.63,17.52,11.63,28.155c0,10.639-4.129,20.638-11.632,28.16l-10.762,10.805
	c-3.055,3.067-3.045,8.03,0.022,11.083c3.066,3.054,8.029,3.045,11.083-0.021l10.76-10.801
	c10.449-10.478,16.204-24.409,16.204-39.227c0-14.815-5.755-28.744-16.203-39.223c-10.454-10.487-24.356-16.262-39.143-16.262
	c-13.52,0-26.3,4.827-36.38,13.669c-10.081-8.842-22.86-13.669-36.38-13.669c-14.787,0-28.69,5.775-39.143,16.261
	c-10.448,10.479-16.201,24.41-16.201,39.224c0,14.819,5.754,28.749,16.199,39.223l63.471,63.716
	c3.174,3.181,7.567,5.006,12.054,5.006C275.434,199.271,279.715,197.493,282.939,194.261z"/>
<path d="M112.989,143.453c2.15,2.156,5.009,3.342,8.05,3.342c2.999,0,5.933-1.219,8.055-3.348l24.417-24.511
	c4.929-4.941,7.642-11.511,7.642-18.498c0-6.984-2.714-13.553-7.642-18.498c-4.934-4.948-11.495-7.674-18.476-7.674
	c-5.034,0-9.851,1.418-13.997,4.067c-4.145-2.648-8.963-4.067-13.997-4.067c-6.981,0-13.542,2.725-18.477,7.675
	c-4.927,4.943-7.64,11.513-7.64,18.497c0,6.988,2.715,13.558,7.639,18.495L112.989,143.453z M99.664,93.009
	c1.972-1.978,4.591-3.068,7.376-3.068c2.785,0,5.403,1.09,7.373,3.065l1.072,1.076c1.471,1.476,3.469,2.306,5.553,2.306
	c2.084,0,4.081-0.83,5.553-2.306l1.07-1.073c1.972-1.978,4.591-3.068,7.375-3.068c2.785,0,5.403,1.09,7.374,3.067
	c1.979,1.985,3.068,4.623,3.068,7.429c0,2.809-1.089,5.446-3.07,7.432l-21.37,21.453l-21.373-21.456
	c-1.977-1.983-3.066-4.622-3.066-7.429C96.598,97.631,97.688,94.992,99.664,93.009z"/>
<path d="M244.644,339.027l-11.391-26.995c1.413-22.943,1.246-26.856,1.046-28.182c-1.274-10.311-4.383-19.99-9.022-28.813
	c2.896-2.58,6.159-6.298,8.816-11.487c7.561-14.76,6.809-33.944-2.238-57.015c-1.411-3.595-5.231-5.63-9.002-4.789l-13.111,2.923
	c-9.044-2.936-44.45-13.543-83.754-13.543c-53.348,0-91.389,19.993-110.008,57.819c-20.43,41.509-21.274,81.463-2.508,118.758
	c14.601,29.018,38.506,52.133,62.56,72.737v38.34c0,4.329,3.509,7.839,7.838,7.839c4.328,0,7.838-3.509,7.838-7.839v-40.684
	l10.767-53.992c0.531-2.66-0.352-5.406-2.334-7.259c-4.585-4.285-7.168-4.875-9.277-4.875c-1.115,0-2.196,0.22-3.213,0.653
	c-1.523,0.65-3.147,0.98-4.825,0.98h-1.13c-6.879,0-12.475-5.625-12.475-12.537v-10.187c0-6.912,5.596-12.536,12.475-12.536h1.13
	c3.499,0,6.765,1.438,9.123,3.984l6.022,17.849c1.075,3.186,4.064,5.333,7.426,5.333h11.285c4.329,0,7.838-3.509,7.838-7.838
	v-77.053h85.919c4.341,7.697,7.221,16.208,8.325,25.317c0.001,0.015,0.003,0.028,0.005,0.043c0.101,2.47-0.561,15.507-1.274,26.914
	c-0.075,1.21,0.13,2.42,0.601,3.537l11.059,26.206l-11.338,4.811c-2.98,1.264-4.877,4.232-4.772,7.467c0,0,0.05,1.552,0.156,3.103
	c0.069,1.019,0.148,1.836,0.24,2.496c1.039,7.42,7.313,7.634,8.025,7.634c3.457,0,6.269,2.831,6.269,6.309
	c0,2.15-1.081,4.134-2.893,5.307c-2.231,1.444-3.578,3.92-3.578,6.578c0,2.657,1.346,5.135,3.576,6.58
	c1.812,1.173,2.894,3.158,2.894,5.306c0,3.479-2.812,6.31-6.269,6.31c-1.064,0-2.071-0.258-2.996-0.767
	c-2.117-1.168-4.655-1.291-6.878-0.339c-2.223,0.955-3.88,2.883-4.49,5.221c-2.909,11.138-12.962,18.918-24.45,18.918h-10.279
	c-16.339,0-30.312-9.529-39.159-17.523c-3.21-2.901-8.166-2.651-11.07,0.56c-2.903,3.212-2.652,8.167,0.56,11.071
	c11.716,10.588,24.315,17.431,37.006,20.185v16.916c0,4.329,3.509,7.839,7.838,7.839c4.329,0,7.838-3.509,7.838-7.839v-15.535h7.264
	c15.904,0,30.113-9.196,36.85-23.123c0.652,0.06,1.306,0.09,1.962,0.09c12.1,0,21.944-9.864,21.944-21.987
	c0-4.295-1.237-8.397-3.478-11.885c2.242-3.487,3.478-7.59,3.478-11.886c0-7.002-3.284-13.25-8.392-17.279l2.746-1.165
	C244.333,353.228,247.42,345.608,244.644,339.027z M212.807,244.945H116.68c-4.329,0-7.838,3.508-7.838,7.838v70.589l-2.512-7.448
	c-0.278-0.822-0.69-1.593-1.22-2.282c-5.379-6.973-13.501-10.971-22.286-10.971h-1.13c-15.523,0-28.151,12.656-28.151,28.211v10.187
	c0,15.556,12.629,28.212,28.151,28.212h1.13c0.892,0,1.779-0.042,2.658-0.124L78.9,402.17
	c-20.22-17.893-39.489-37.789-51.426-61.511c-16.67-33.131-15.83-67.407,2.569-104.789c16.026-32.559,48.306-49.067,95.944-49.067
	c41.893,0,80.365,13.256,80.746,13.389c1.379,0.484,2.867,0.571,4.293,0.252l8.501-1.895
	C230.001,230.505,217.046,242.125,212.807,244.945z"/>
<path d="M212.544,295.793c0-4.329-3.509-7.838-7.838-7.838H162.95c-4.329,0-7.838,3.509-7.838,7.838c0,4.33,3.509,7.838,7.838,7.838
	h41.756C209.035,303.63,212.544,300.123,212.544,295.793z"/>
<path d="M193.514,312.897c-2.786,2.793-6.482,4.332-10.409,4.332c-3.928,0-7.625-1.539-10.41-4.332
	c-3.056-3.067-8.02-3.073-11.084-0.017c-3.065,3.057-3.072,8.019-0.016,11.084c5.748,5.765,13.388,8.939,21.511,8.939
	c8.123,0,15.761-3.174,21.509-8.939c3.056-3.066,3.048-8.028-0.017-11.084C201.531,309.825,196.568,309.832,193.514,312.897z"/>
<path d="M433.065,406.155c-4.329,0-7.838,3.509-7.838,7.838v54.331c0,4.329,3.509,7.838,7.838,7.838c4.33,0,7.838-3.509,7.838-7.838
	v-54.331C440.903,409.664,437.395,406.155,433.065,406.155z"/>
<path d="M465.792,406.155c-4.329,0-7.838,3.509-7.838,7.838v54.331c0,4.329,3.509,7.838,7.838,7.838
	c4.329,0,7.838-3.509,7.838-7.838v-54.331C473.63,409.664,470.121,406.155,465.792,406.155z"/>
<path d="M342.227,327.524c-2.786,2.794-6.483,4.333-10.41,4.333c-3.929,0-7.625-1.539-10.41-4.333
	c-3.057-3.065-8.02-3.071-11.084-0.016c-3.065,3.056-3.071,8.019-0.016,11.084c5.748,5.765,13.386,8.939,21.51,8.939
	c8.123,0,15.762-3.174,21.51-8.939c3.056-3.066,3.049-8.028-0.016-11.084C350.245,324.452,345.283,324.461,342.227,327.524z"/>
<path d="M504.162,338.037c-4.329,0-7.838,3.508-7.838,7.838v122.45c0,4.329,3.509,7.838,7.838,7.838s7.839-3.509,7.839-7.838
	v-122.45C512.001,341.545,508.492,338.037,504.162,338.037z"/>
<path d="M387.384,172.26c-66.454,0-121.124,52.106-124.46,118.637c-0.179,3.674,1.168,7.307,3.684,9.953
	c2.534,2.675,6.098,4.21,9.781,4.21h6.71c-0.293,7.111,0.897,19.723,1.656,26.166l-11.419,21.141
	c-3.831,7.084-1.193,15.977,5.881,19.82l6.568,3.569c-2.094,3.278-3.267,7.152-3.267,11.248c0,7.165,3.671,13.532,9.229,17.292
	c-0.938,2.394-1.441,4.966-1.441,7.593c0,11.503,9.341,20.861,20.822,20.861c0.386,0,0.77-0.011,1.155-0.032
	c8.029,8.729,17.616,13.759,27.966,14.622c1.044,0.088,2.087,0.131,3.129,0.131c5.181,0,10.339-1.088,15.347-3.163v24.015
	c0,4.329,3.508,7.838,7.837,7.838s7.839-3.509,7.839-7.838v-34.33c1.716-1.596,3.393-3.311,5.014-5.174
	c2.841-3.266,2.498-8.217-0.768-11.058c-3.263-2.842-8.215-2.496-11.057,0.768c-5.687,6.536-14.82,14.125-26.036,13.192
	c-9.181-0.766-15.971-7.139-20.051-12.35c-2.061-2.632-5.561-3.669-8.72-2.581c-0.552,0.19-1.109,0.285-1.655,0.285
	c-2.837,0-5.145-2.326-5.145-5.186c0-1.688,0.794-3.227,2.179-4.221c2.773-1.993,3.938-5.554,2.877-8.8
	c-0.125-0.382-0.246-0.768-0.366-1.157c-1.002-3.253-3.989-5.488-7.395-5.529c-2.803-0.034-5.083-2.357-5.083-5.178
	c0-2.129,1.275-4.018,3.246-4.811c3.154-1.27,5.132-4.426,4.894-7.818c-0.014-0.197-0.074-0.789-0.191-1.698
	c-0.322-2.498-1.821-4.69-4.033-5.892l-14.492-7.873l12.123-22.446c0.79-1.463,1.094-3.14,0.868-4.788
	c-0.875-6.384-2.209-21.208-1.811-26.618h70.755c4.61,8.921,11.368,16.706,19.56,22.519v140.746c0,4.329,3.509,7.838,7.838,7.838
	c4.33,0,7.839-3.509,7.839-7.838V335.611c6.489,2.239,13.356,3.429,20.373,3.429c4.33,0,7.838-3.509,7.838-7.838
	c0-4.329-3.508-7.838-7.838-7.838c-8.519,0-16.751-2.31-23.938-6.602c0,0-0.143-0.071-0.219-0.117
	c-8.574-5.185-15.395-13.141-19.204-22.404c-1.209-2.938-4.072-4.857-7.249-4.857H278.72
	c4.035-57.073,51.334-101.449,108.665-101.449c60.07,0,108.941,49.026,108.941,109.287v15.212c0,4.33,3.509,7.838,7.838,7.838
	s7.839-3.508,7.839-7.838v-15.212C512.001,228.316,456.098,172.26,387.384,172.26z"/>
<g>
</g>
<g>
</g>
<g>
</g>
<g>
</g>
<g>
</g>
<g>
</g>
<g>
</g>
<g>
</g>
<g>
</g>
<g>
</g>
<g>
</g>
<g>
</g>
<g>
</g>
<g>
</g>
<g>
</g>
</svg>
